0
SECTION
2
HEADER
9
$ACADVER
1
AC1009
9
$INSUNITS
70
4
9
$EXTMIN
10
-6200.000000
20
-7000.000000
30
0.0
9
$EXTMAX
10
20400.000000
20
11600.000000
30
0.0
0
ENDSEC
0
SECTION
2
TABLES
0
TABLE
2
LTYPE
70
3
0
LTYPE
2
CONTINUOUS
70
0
3
Solid line
72
65
73
0
40
0.000000
0
LTYPE
2
DASHED
70
0
3
__ __ __ __
72
65
73
2
40
600.000000
49
400.000000
49
-200.000000
0
LTYPE
2
CENTER
70
0
3
____ _ ____
72
65
73
4
40
1750.000000
49
1000.000000
49
-250.000000
49
250.000000
49
-250.000000
0
ENDTAB
0
TABLE
2
LAYER
70
9
0
LAYER
2
0
70
0
62
7
6
CONTINUOUS
0
LAYER
2
TUONG
70
0
62
7
6
CONTINUOUS
0
LAYER
2
CUA_SO
70
0
62
4
6
CONTINUOUS
0
LAYER
2
THIET_BI
70
0
62
6
6
CONTINUOUS
0
LAYER
2
HATCH
70
0
62
8
6
CONTINUOUS
0
LAYER
2
TRUC
70
0
62
1
6
CENTER
0
LAYER
2
KICH_THUOC
70
0
62
3
6
CONTINUOUS
0
LAYER
2
VAN_BAN
70
0
62
2
6
CONTINUOUS
0
LAYER
2
KHUNG_TEN
70
0
62
5
6
CONTINUOUS
0
ENDTAB
0
TABLE
2
STYLE
70
1
0
STYLE
2
STANDARD
70
0
40
0.0
41
1.0
50
0.0
71
0
42
2.5
3
txt
4

0
ENDTAB
0
ENDSEC
0
SECTION
2
ENTITIES
0
LINE
8
TUONG
10
0.000000
20
110.000000
30
0.0
11
12000.000000
21
110.000000
31
0.0
0
LINE
8
TUONG
10
0.000000
20
-110.000000
30
0.0
11
12000.000000
21
-110.000000
31
0.0
0
LINE
8
TUONG
10
0.000000
20
8110.000000
30
0.0
11
12000.000000
21
8110.000000
31
0.0
0
LINE
8
TUONG
10
0.000000
20
7890.000000
30
0.0
11
12000.000000
21
7890.000000
31
0.0
0
LINE
8
TUONG
10
-110.000000
20
0.000000
30
0.0
11
-110.000000
21
8000.000000
31
0.0
0
LINE
8
TUONG
10
110.000000
20
0.000000
30
0.0
11
110.000000
21
8000.000000
31
0.0
0
LINE
8
TUONG
10
11890.000000
20
0.000000
30
0.0
11
11890.000000
21
8000.000000
31
0.0
0
LINE
8
TUONG
10
12110.000000
20
0.000000
30
0.0
11
12110.000000
21
8000.000000
31
0.0
0
LINE
8
TUONG
10
0.000000
20
110.000000
30
0.0
11
0.000000
21
-110.000000
31
0.0
0
LINE
8
TUONG
10
12000.000000
20
110.000000
30
0.0
11
12000.000000
21
-110.000000
31
0.0
0
LINE
8
TUONG
10
0.000000
20
8110.000000
30
0.0
11
0.000000
21
7890.000000
31
0.0
0
LINE
8
TUONG
10
12000.000000
20
8110.000000
30
0.0
11
12000.000000
21
7890.000000
31
0.0
0
LINE
8
TUONG
10
5945.000000
20
0.000000
30
0.0
11
5945.000000
21
8000.000000
31
0.0
0
LINE
8
TUONG
10
6055.000000
20
0.000000
30
0.0
11
6055.000000
21
8000.000000
31
0.0
0
LINE
8
TUONG
10
6000.000000
20
4255.000000
30
0.0
11
12000.000000
21
4255.000000
31
0.0
0
LINE
8
TUONG
10
6000.000000
20
4145.000000
30
0.0
11
12000.000000
21
4145.000000
31
0.0
0
LINE
8
TUONG
10
0.000000
20
5405.000000
30
0.0
11
6000.000000
21
5405.000000
31
0.0
0
LINE
8
TUONG
10
0.000000
20
5295.000000
30
0.0
11
6000.000000
21
5295.000000
31
0.0
0
LINE
8
TUONG
10
1700.000000
20
-110.000000
30
0.0
11
1700.000000
21
110.000000
31
0.0
0
LINE
8
TUONG
10
2700.000000
20
-110.000000
30
0.0
11
2700.000000
21
110.000000
31
0.0
0
LINE
8
CUA_SO
10
1700.000000
20
0.000000
30
0.0
11
1700.000000
21
1000.000000
31
0.0
0
ARC
8
CUA_SO
10
1700.000000
20
0.000000
30
0.0
40
1000.000000
50
0.000000
51
90.000000
0
LINE
8
TUONG
10
3700.000000
20
-110.000000
30
0.0
11
3700.000000
21
110.000000
31
0.0
0
LINE
8
TUONG
10
5500.000000
20
-110.000000
30
0.0
11
5500.000000
21
110.000000
31
0.0
0
LINE
8
CUA_SO
10
3700.000000
20
-36.666667
30
0.0
11
5500.000000
21
-36.666667
31
0.0
0
LINE
8
CUA_SO
10
3700.000000
20
36.666667
30
0.0
11
5500.000000
21
36.666667
31
0.0
0
LINE
8
TUONG
10
8000.000000
20
-110.000000
30
0.0
11
8000.000000
21
110.000000
31
0.0
0
LINE
8
TUONG
10
9600.000000
20
-110.000000
30
0.0
11
9600.000000
21
110.000000
31
0.0
0
LINE
8
CUA_SO
10
8000.000000
20
-36.666667
30
0.0
11
9600.000000
21
-36.666667
31
0.0
0
LINE
8
CUA_SO
10
8000.000000
20
36.666667
30
0.0
11
9600.000000
21
36.666667
31
0.0
0
LINE
8
TUONG
10
2100.000000
20
7890.000000
30
0.0
11
2100.000000
21
8110.000000
31
0.0
0
LINE
8
TUONG
10
3900.000000
20
7890.000000
30
0.0
11
3900.000000
21
8110.000000
31
0.0
0
LINE
8
CUA_SO
10
2100.000000
20
7963.333333
30
0.0
11
3900.000000
21
7963.333333
31
0.0
0
LINE
8
CUA_SO
10
2100.000000
20
8036.666667
30
0.0
11
3900.000000
21
8036.666667
31
0.0
0
LINE
8
TUONG
10
8400.000000
20
7890.000000
30
0.0
11
8400.000000
21
8110.000000
31
0.0
0
LINE
8
TUONG
10
10000.000000
20
7890.000000
30
0.0
11
10000.000000
21
8110.000000
31
0.0
0
LINE
8
CUA_SO
10
8400.000000
20
7963.333333
30
0.0
11
10000.000000
21
7963.333333
31
0.0
0
LINE
8
CUA_SO
10
8400.000000
20
8036.666667
30
0.0
11
10000.000000
21
8036.666667
31
0.0
0
LINE
8
TUONG
10
-110.000000
20
5850.000000
30
0.0
11
110.000000
21
5850.000000
31
0.0
0
LINE
8
TUONG
10
-110.000000
20
7350.000000
30
0.0
11
110.000000
21
7350.000000
31
0.0
0
LINE
8
CUA_SO
10
-36.666667
20
5850.000000
30
0.0
11
-36.666667
21
7350.000000
31
0.0
0
LINE
8
CUA_SO
10
36.666667
20
5850.000000
30
0.0
11
36.666667
21
7350.000000
31
0.0
0
LINE
8
TUONG
10
3750.000000
20
5295.000000
30
0.0
11
3750.000000
21
5405.000000
31
0.0
0
LINE
8
TUONG
10
4650.000000
20
5295.000000
30
0.0
11
4650.000000
21
5405.000000
31
0.0
0
LINE
8
CUA_SO
10
3750.000000
20
5350.000000
30
0.0
11
3750.000000
21
6250.000000
31
0.0
0
ARC
8
CUA_SO
10
3750.000000
20
5350.000000
30
0.0
40
900.000000
50
0.000000
51
90.000000
0
LINE
8
TUONG
10
5945.000000
20
1550.000000
30
0.0
11
6055.000000
21
1550.000000
31
0.0
0
LINE
8
TUONG
10
5945.000000
20
2450.000000
30
0.0
11
6055.000000
21
2450.000000
31
0.0
0
LINE
8
CUA_SO
10
6000.000000
20
1550.000000
30
0.0
11
6900.000000
21
1550.000000
31
0.0
0
ARC
8
CUA_SO
10
6000.000000
20
1550.000000
30
0.0
40
900.000000
50
0.000000
51
90.000000
0
LINE
8
TUONG
10
5945.000000
20
4550.000000
30
0.0
11
6055.000000
21
4550.000000
31
0.0
0
LINE
8
TUONG
10
5945.000000
20
5450.000000
30
0.0
11
6055.000000
21
5450.000000
31
0.0
0
LINE
8
CUA_SO
10
6000.000000
20
4550.000000
30
0.0
11
6900.000000
21
4550.000000
31
0.0
0
ARC
8
CUA_SO
10
6000.000000
20
4550.000000
30
0.0
40
900.000000
50
0.000000
51
90.000000
0
LINE
8
HATCH
10
6115.000000
20
3765.000000
30
0.0
11
6435.000000
21
4085.000000
31
0.0
0
LINE
8
HATCH
10
6115.000000
20
3445.000000
30
0.0
11
6755.000000
21
4085.000000
31
0.0
0
LINE
8
HATCH
10
6115.000000
20
3125.000000
30
0.0
11
7075.000000
21
4085.000000
31
0.0
0
LINE
8
HATCH
10
6115.000000
20
2805.000000
30
0.0
11
7395.000000
21
4085.000000
31
0.0
0
LINE
8
HATCH
10
6115.000000
20
2485.000000
30
0.0
11
7715.000000
21
4085.000000
31
0.0
0
LINE
8
HATCH
10
6115.000000
20
2165.000000
30
0.0
11
8035.000000
21
4085.000000
31
0.0
0
LINE
8
HATCH
10
6115.000000
20
1845.000000
30
0.0
11
8355.000000
21
4085.000000
31
0.0
0
LINE
8
HATCH
10
6115.000000
20
1525.000000
30
0.0
11
8675.000000
21
4085.000000
31
0.0
0
LINE
8
HATCH
10
6115.000000
20
1205.000000
30
0.0
11
8995.000000
21
4085.000000
31
0.0
0
LINE
8
HATCH
10
6115.000000
20
885.000000
30
0.0
11
9315.000000
21
4085.000000
31
0.0
0
LINE
8
HATCH
10
6115.000000
20
565.000000
30
0.0
11
9635.000000
21
4085.000000
31
0.0
0
LINE
8
HATCH
10
6115.000000
20
245.000000
30
0.0
11
9955.000000
21
4085.000000
31
0.0
0
LINE
8
HATCH
10
6360.000000
20
170.000000
30
0.0
11
10275.000000
21
4085.000000
31
0.0
0
LINE
8
HATCH
10
6680.000000
20
170.000000
30
0.0
11
10595.000000
21
4085.000000
31
0.0
0
LINE
8
HATCH
10
7000.000000
20
170.000000
30
0.0
11
10915.000000
21
4085.000000
31
0.0
0
LINE
8
HATCH
10
7320.000000
20
170.000000
30
0.0
11
11235.000000
21
4085.000000
31
0.0
0
LINE
8
HATCH
10
7640.000000
20
170.000000
30
0.0
11
11555.000000
21
4085.000000
31
0.0
0
LINE
8
HATCH
10
7960.000000
20
170.000000
30
0.0
11
11830.000000
21
4040.000000
31
0.0
0
LINE
8
HATCH
10
8280.000000
20
170.000000
30
0.0
11
11830.000000
21
3720.000000
31
0.0
0
LINE
8
HATCH
10
8600.000000
20
170.000000
30
0.0
11
11830.000000
21
3400.000000
31
0.0
0
LINE
8
HATCH
10
8920.000000
20
170.000000
30
0.0
11
11830.000000
21
3080.000000
31
0.0
0
LINE
8
HATCH
10
9240.000000
20
170.000000
30
0.0
11
11830.000000
21
2760.000000
31
0.0
0
LINE
8
HATCH
10
9560.000000
20
170.000000
30
0.0
11
11830.000000
21
2440.000000
31
0.0
0
LINE
8
HATCH
10
9880.000000
20
170.000000
30
0.0
11
11830.000000
21
2120.000000
31
0.0
0
LINE
8
HATCH
10
10200.000000
20
170.000000
30
0.0
11
11830.000000
21
1800.000000
31
0.0
0
LINE
8
HATCH
10
10520.000000
20
170.000000
30
0.0
11
11830.000000
21
1480.000000
31
0.0
0
LINE
8
HATCH
10
10840.000000
20
170.000000
30
0.0
11
11830.000000
21
1160.000000
31
0.0
0
LINE
8
HATCH
10
11160.000000
20
170.000000
30
0.0
11
11830.000000
21
840.000000
31
0.0
0
LINE
8
HATCH
10
11480.000000
20
170.000000
30
0.0
11
11830.000000
21
520.000000
31
0.0
0
LINE
8
HATCH
10
11800.000000
20
170.000000
30
0.0
11
11830.000000
21
200.000000
31
0.0
0
LINE
8
THIET_BI
10
700.000000
20
1250.000000
30
0.0
11
3100.000000
21
1250.000000
31
0.0
0
LINE
8
THIET_BI
10
3100.000000
20
1250.000000
30
0.0
11
3100.000000
21
2100.000000
31
0.0
0
LINE
8
THIET_BI
10
3100.000000
20
2100.000000
30
0.0
11
700.000000
21
2100.000000
31
0.0
0
LINE
8
THIET_BI
10
700.000000
20
2100.000000
30
0.0
11
700.000000
21
1250.000000
31
0.0
0
LINE
8
THIET_BI
10
700.000000
20
1250.000000
30
0.0
11
1000.000000
21
1250.000000
31
0.0
0
LINE
8
THIET_BI
10
1000.000000
20
1250.000000
30
0.0
11
1000.000000
21
2100.000000
31
0.0
0
LINE
8
THIET_BI
10
1000.000000
20
2100.000000
30
0.0
11
700.000000
21
2100.000000
31
0.0
0
LINE
8
THIET_BI
10
700.000000
20
2100.000000
30
0.0
11
700.000000
21
1250.000000
31
0.0
0
LINE
8
THIET_BI
10
1900.000000
20
1250.000000
30
0.0
11
1900.000000
21
2100.000000
31
0.0
0
LINE
8
THIET_BI
10
1250.000000
20
2300.000000
30
0.0
11
2550.000000
21
2300.000000
31
0.0
0
LINE
8
THIET_BI
10
2550.000000
20
2300.000000
30
0.0
11
2550.000000
21
3050.000000
31
0.0
0
LINE
8
THIET_BI
10
2550.000000
20
3050.000000
30
0.0
11
1250.000000
21
3050.000000
31
0.0
0
LINE
8
THIET_BI
10
1250.000000
20
3050.000000
30
0.0
11
1250.000000
21
2300.000000
31
0.0
0
LINE
8
THIET_BI
10
600.000000
20
3300.000000
30
0.0
11
900.000000
21
3300.000000
31
0.0
0
LINE
8
THIET_BI
10
900.000000
20
3300.000000
30
0.0
11
900.000000
21
5200.000000
31
0.0
0
LINE
8
THIET_BI
10
900.000000
20
5200.000000
30
0.0
11
600.000000
21
5200.000000
31
0.0
0
LINE
8
THIET_BI
10
600.000000
20
5200.000000
30
0.0
11
600.000000
21
3300.000000
31
0.0
0
CIRCLE
8
THIET_BI
10
4300.000000
20
2600.000000
30
0.0
40
750.000000
0
CIRCLE
8
THIET_BI
10
5450.000000
20
2600.000000
30
0.0
40
260.000000
0
CIRCLE
8
THIET_BI
10
4300.000000
20
3750.000000
30
0.0
40
260.000000
0
CIRCLE
8
THIET_BI
10
3150.000000
20
2600.000000
30
0.0
40
260.000000
0
CIRCLE
8
THIET_BI
10
4300.000000
20
1450.000000
30
0.0
40
260.000000
0
LINE
8
THIET_BI
10
6250.000000
20
400.000000
30
0.0
11
11600.000000
21
400.000000
31
0.0
0
LINE
8
THIET_BI
10
11600.000000
20
400.000000
30
0.0
11
11600.000000
21
1000.000000
31
0.0
0
LINE
8
THIET_BI
10
11600.000000
20
1000.000000
30
0.0
11
6250.000000
21
1000.000000
31
0.0
0
LINE
8
THIET_BI
10
6250.000000
20
1000.000000
30
0.0
11
6250.000000
21
400.000000
31
0.0
0
LINE
8
THIET_BI
10
11000.000000
20
400.000000
30
0.0
11
11600.000000
21
400.000000
31
0.0
0
LINE
8
THIET_BI
10
11600.000000
20
400.000000
30
0.0
11
11600.000000
21
3200.000000
31
0.0
0
LINE
8
THIET_BI
10
11600.000000
20
3200.000000
30
0.0
11
11000.000000
21
3200.000000
31
0.0
0
LINE
8
THIET_BI
10
11000.000000
20
3200.000000
30
0.0
11
11000.000000
21
400.000000
31
0.0
0
CIRCLE
8
THIET_BI
10
7800.000000
20
700.000000
30
0.0
40
240.000000
0
LINE
8
THIET_BI
10
9100.000000
20
480.000000
30
0.0
11
10000.000000
21
480.000000
31
0.0
0
LINE
8
THIET_BI
10
10000.000000
20
480.000000
30
0.0
11
10000.000000
21
920.000000
31
0.0
0
LINE
8
THIET_BI
10
10000.000000
20
920.000000
30
0.0
11
9100.000000
21
920.000000
31
0.0
0
LINE
8
THIET_BI
10
9100.000000
20
920.000000
30
0.0
11
9100.000000
21
480.000000
31
0.0
0
LINE
8
THIET_BI
10
9550.000000
20
480.000000
30
0.0
11
9550.000000
21
920.000000
31
0.0
0
LINE
8
THIET_BI
10
6250.000000
20
2400.000000
30
0.0
11
6950.000000
21
2400.000000
31
0.0
0
LINE
8
THIET_BI
10
6950.000000
20
2400.000000
30
0.0
11
6950.000000
21
3200.000000
31
0.0
0
LINE
8
THIET_BI
10
6950.000000
20
3200.000000
30
0.0
11
6250.000000
21
3200.000000
31
0.0
0
LINE
8
THIET_BI
10
6250.000000
20
3200.000000
30
0.0
11
6250.000000
21
2400.000000
31
0.0
0
LINE
8
THIET_BI
10
6250.000000
20
2800.000000
30
0.0
11
6950.000000
21
2800.000000
31
0.0
0
LINE
8
THIET_BI
10
900.000000
20
5600.000000
30
0.0
11
2700.000000
21
5600.000000
31
0.0
0
LINE
8
THIET_BI
10
2700.000000
20
5600.000000
30
0.0
11
2700.000000
21
7500.000000
31
0.0
0
LINE
8
THIET_BI
10
2700.000000
20
7500.000000
30
0.0
11
900.000000
21
7500.000000
31
0.0
0
LINE
8
THIET_BI
10
900.000000
20
7500.000000
30
0.0
11
900.000000
21
5600.000000
31
0.0
0
LINE
8
THIET_BI
10
900.000000
20
7100.000000
30
0.0
11
2700.000000
21
7100.000000
31
0.0
0
LINE
8
THIET_BI
10
1050.000000
20
7150.000000
30
0.0
11
1700.000000
21
7150.000000
31
0.0
0
LINE
8
THIET_BI
10
1700.000000
20
7150.000000
30
0.0
11
1700.000000
21
7450.000000
31
0.0
0
LINE
8
THIET_BI
10
1700.000000
20
7450.000000
30
0.0
11
1050.000000
21
7450.000000
31
0.0
0
LINE
8
THIET_BI
10
1050.000000
20
7450.000000
30
0.0
11
1050.000000
21
7150.000000
31
0.0
0
LINE
8
THIET_BI
10
1900.000000
20
7150.000000
30
0.0
11
2550.000000
21
7150.000000
31
0.0
0
LINE
8
THIET_BI
10
2550.000000
20
7150.000000
30
0.0
11
2550.000000
21
7450.000000
31
0.0
0
LINE
8
THIET_BI
10
2550.000000
20
7450.000000
30
0.0
11
1900.000000
21
7450.000000
31
0.0
0
LINE
8
THIET_BI
10
1900.000000
20
7450.000000
30
0.0
11
1900.000000
21
7150.000000
31
0.0
0
LINE
8
THIET_BI
10
3000.000000
20
6400.000000
30
0.0
11
3500.000000
21
6400.000000
31
0.0
0
LINE
8
THIET_BI
10
3500.000000
20
6400.000000
30
0.0
11
3500.000000
21
7500.000000
31
0.0
0
LINE
8
THIET_BI
10
3500.000000
20
7500.000000
30
0.0
11
3000.000000
21
7500.000000
31
0.0
0
LINE
8
THIET_BI
10
3000.000000
20
7500.000000
30
0.0
11
3000.000000
21
6400.000000
31
0.0
0
LINE
8
THIET_BI
10
7400.000000
20
5900.000000
30
0.0
11
9000.000000
21
5900.000000
31
0.0
0
LINE
8
THIET_BI
10
9000.000000
20
5900.000000
30
0.0
11
9000.000000
21
7500.000000
31
0.0
0
LINE
8
THIET_BI
10
9000.000000
20
7500.000000
30
0.0
11
7400.000000
21
7500.000000
31
0.0
0
LINE
8
THIET_BI
10
7400.000000
20
7500.000000
30
0.0
11
7400.000000
21
5900.000000
31
0.0
0
LINE
8
THIET_BI
10
7400.000000
20
7150.000000
30
0.0
11
9000.000000
21
7150.000000
31
0.0
0
LINE
8
THIET_BI
10
10200.000000
20
5200.000000
30
0.0
11
11500.000000
21
5200.000000
31
0.0
0
LINE
8
THIET_BI
10
11500.000000
20
5200.000000
30
0.0
11
11500.000000
21
5800.000000
31
0.0
0
LINE
8
THIET_BI
10
11500.000000
20
5800.000000
30
0.0
11
10200.000000
21
5800.000000
31
0.0
0
LINE
8
THIET_BI
10
10200.000000
20
5800.000000
30
0.0
11
10200.000000
21
5200.000000
31
0.0
0
CIRCLE
8
THIET_BI
10
10850.000000
20
6250.000000
30
0.0
40
320.000000
0
TEXT
8
VAN_BAN
10
1932.000000
20
4000.000000
30
0.0
40
320.000000
1
PHONG KHACH
50
0.000000
41
1.0
7
STANDARD
0
TEXT
8
VAN_BAN
10
2515.000000
20
3600.000000
30
0.0
40
200.000000
1
29.2 m2
50
0.000000
41
1.0
7
STANDARD
0
TEXT
8
VAN_BAN
10
1344.000000
20
6300.000000
30
0.0
40
320.000000
1
PHONG NGU 01
50
0.000000
41
1.0
7
STANDARD
0
TEXT
8
VAN_BAN
10
2015.000000
20
5900.000000
30
0.0
40
200.000000
1
13.6 m2
50
0.000000
41
1.0
7
STANDARD
0
TEXT
8
VAN_BAN
10
8196.000000
20
2000.000000
30
0.0
40
320.000000
1
BEP + AN
50
0.000000
41
1.0
7
STANDARD
0
TEXT
8
VAN_BAN
10
8515.000000
20
1600.000000
30
0.0
40
200.000000
1
22.4 m2
50
0.000000
41
1.0
7
STANDARD
0
TEXT
8
VAN_BAN
10
8344.000000
20
6600.000000
30
0.0
40
320.000000
1
PHONG NGU 02
50
0.000000
41
1.0
7
STANDARD
0
TEXT
8
VAN_BAN
10
9015.000000
20
6200.000000
30
0.0
40
200.000000
1
20.1 m2
50
0.000000
41
1.0
7
STANDARD
0
TEXT
8
VAN_BAN
10
1311.750000
20
-700.000000
30
0.0
40
170.000000
1
CUA CHINH 1000x2200
50
0.000000
41
1.0
7
STANDARD
0
LINE
8
TRUC
10
0.000000
20
-1200.000000
30
0.0
11
0.000000
21
9200.000000
31
0.0
0
CIRCLE
8
TRUC
10
0.000000
20
9650.000000
30
0.0
40
400.000000
0
TEXT
8
TRUC
10
-71.500000
20
9556.400000
30
0.0
40
260.000000
1
A
50
0.000000
41
1.0
7
STANDARD
0
LINE
8
TRUC
10
6000.000000
20
-1200.000000
30
0.0
11
6000.000000
21
9200.000000
31
0.0
0
CIRCLE
8
TRUC
10
6000.000000
20
9650.000000
30
0.0
40
400.000000
0
TEXT
8
TRUC
10
5928.500000
20
9556.400000
30
0.0
40
260.000000
1
B
50
0.000000
41
1.0
7
STANDARD
0
LINE
8
TRUC
10
12000.000000
20
-1200.000000
30
0.0
11
12000.000000
21
9200.000000
31
0.0
0
CIRCLE
8
TRUC
10
12000.000000
20
9650.000000
30
0.0
40
400.000000
0
TEXT
8
TRUC
10
11928.500000
20
9556.400000
30
0.0
40
260.000000
1
C
50
0.000000
41
1.0
7
STANDARD
0
LINE
8
TRUC
10
-1200.000000
20
0.000000
30
0.0
11
13200.000000
21
0.000000
31
0.0
0
CIRCLE
8
TRUC
10
-1650.000000
20
0.000000
30
0.0
40
400.000000
0
TEXT
8
TRUC
10
-1721.500000
20
-93.600000
30
0.0
40
260.000000
1
1
50
0.000000
41
1.0
7
STANDARD
0
LINE
8
TRUC
10
-1200.000000
20
4200.000000
30
0.0
11
13200.000000
21
4200.000000
31
0.0
0
CIRCLE
8
TRUC
10
-1650.000000
20
4200.000000
30
0.0
40
400.000000
0
TEXT
8
TRUC
10
-1721.500000
20
4106.400000
30
0.0
40
260.000000
1
2
50
0.000000
41
1.0
7
STANDARD
0
LINE
8
TRUC
10
-1200.000000
20
8000.000000
30
0.0
11
13200.000000
21
8000.000000
31
0.0
0
CIRCLE
8
TRUC
10
-1650.000000
20
8000.000000
30
0.0
40
400.000000
0
TEXT
8
TRUC
10
-1721.500000
20
7906.400000
30
0.0
40
260.000000
1
3
50
0.000000
41
1.0
7
STANDARD
0
LINE
8
KICH_THUOC
10
0.000000
20
-2100.000000
30
0.0
11
6000.000000
21
-2100.000000
31
0.0
0
LINE
8
KICH_THUOC
10
-60.000000
20
-2160.000000
30
0.0
11
60.000000
21
-2040.000000
31
0.0
0
LINE
8
KICH_THUOC
10
5940.000000
20
-2160.000000
30
0.0
11
6060.000000
21
-2040.000000
31
0.0
0
LINE
8
KICH_THUOC
10
0.000000
20
-2250.000000
30
0.0
11
0.000000
21
-1950.000000
31
0.0
0
LINE
8
KICH_THUOC
10
6000.000000
20
-2250.000000
30
0.0
11
6000.000000
21
-1950.000000
31
0.0
0
TEXT
8
KICH_THUOC
10
2802.000000
20
-2010.000000
30
0.0
40
180.000000
1
6000
50
0.000000
41
1.0
7
STANDARD
0
LINE
8
KICH_THUOC
10
6000.000000
20
-2100.000000
30
0.0
11
12000.000000
21
-2100.000000
31
0.0
0
LINE
8
KICH_THUOC
10
5940.000000
20
-2160.000000
30
0.0
11
6060.000000
21
-2040.000000
31
0.0
0
LINE
8
KICH_THUOC
10
11940.000000
20
-2160.000000
30
0.0
11
12060.000000
21
-2040.000000
31
0.0
0
LINE
8
KICH_THUOC
10
6000.000000
20
-2250.000000
30
0.0
11
6000.000000
21
-1950.000000
31
0.0
0
LINE
8
KICH_THUOC
10
12000.000000
20
-2250.000000
30
0.0
11
12000.000000
21
-1950.000000
31
0.0
0
TEXT
8
KICH_THUOC
10
8802.000000
20
-2010.000000
30
0.0
40
180.000000
1
6000
50
0.000000
41
1.0
7
STANDARD
0
LINE
8
KICH_THUOC
10
0.000000
20
-3000.000000
30
0.0
11
12000.000000
21
-3000.000000
31
0.0
0
LINE
8
KICH_THUOC
10
-60.000000
20
-3060.000000
30
0.0
11
60.000000
21
-2940.000000
31
0.0
0
LINE
8
KICH_THUOC
10
11940.000000
20
-3060.000000
30
0.0
11
12060.000000
21
-2940.000000
31
0.0
0
LINE
8
KICH_THUOC
10
0.000000
20
-3150.000000
30
0.0
11
0.000000
21
-2850.000000
31
0.0
0
LINE
8
KICH_THUOC
10
12000.000000
20
-3150.000000
30
0.0
11
12000.000000
21
-2850.000000
31
0.0
0
TEXT
8
KICH_THUOC
10
5752.500000
20
-2910.000000
30
0.0
40
180.000000
1
12000
50
0.000000
41
1.0
7
STANDARD
0
LINE
8
KICH_THUOC
10
13500.000000
20
0.000000
30
0.0
11
13500.000000
21
4200.000000
31
0.0
0
LINE
8
KICH_THUOC
10
13440.000000
20
-60.000000
30
0.0
11
13560.000000
21
60.000000
31
0.0
0
LINE
8
KICH_THUOC
10
13440.000000
20
4140.000000
30
0.0
11
13560.000000
21
4260.000000
31
0.0
0
LINE
8
KICH_THUOC
10
13350.000000
20
0.000000
30
0.0
11
13650.000000
21
0.000000
31
0.0
0
LINE
8
KICH_THUOC
10
13350.000000
20
4200.000000
30
0.0
11
13650.000000
21
4200.000000
31
0.0
0
TEXT
8
KICH_THUOC
10
13410.000000
20
1902.000000
30
0.0
40
180.000000
1
4200
50
90.000000
41
1.0
7
STANDARD
0
LINE
8
KICH_THUOC
10
13500.000000
20
4200.000000
30
0.0
11
13500.000000
21
8000.000000
31
0.0
0
LINE
8
KICH_THUOC
10
13440.000000
20
4140.000000
30
0.0
11
13560.000000
21
4260.000000
31
0.0
0
LINE
8
KICH_THUOC
10
13440.000000
20
7940.000000
30
0.0
11
13560.000000
21
8060.000000
31
0.0
0
LINE
8
KICH_THUOC
10
13350.000000
20
4200.000000
30
0.0
11
13650.000000
21
4200.000000
31
0.0
0
LINE
8
KICH_THUOC
10
13350.000000
20
8000.000000
30
0.0
11
13650.000000
21
8000.000000
31
0.0
0
TEXT
8
KICH_THUOC
10
13410.000000
20
5902.000000
30
0.0
40
180.000000
1
3800
50
90.000000
41
1.0
7
STANDARD
0
LINE
8
KICH_THUOC
10
14400.000000
20
0.000000
30
0.0
11
14400.000000
21
8000.000000
31
0.0
0
LINE
8
KICH_THUOC
10
14340.000000
20
-60.000000
30
0.0
11
14460.000000
21
60.000000
31
0.0
0
LINE
8
KICH_THUOC
10
14340.000000
20
7940.000000
30
0.0
11
14460.000000
21
8060.000000
31
0.0
0
LINE
8
KICH_THUOC
10
14250.000000
20
0.000000
30
0.0
11
14550.000000
21
0.000000
31
0.0
0
LINE
8
KICH_THUOC
10
14250.000000
20
8000.000000
30
0.0
11
14550.000000
21
8000.000000
31
0.0
0
TEXT
8
KICH_THUOC
10
14310.000000
20
3802.000000
30
0.0
40
180.000000
1
8000
50
90.000000
41
1.0
7
STANDARD
0
TEXT
8
VAN_BAN
10
-5800.000000
20
7800.000000
30
0.0
40
220.000000
1
GHI CHU:
50
0.000000
41
1.0
7
STANDARD
0
TEXT
8
VAN_BAN
10
-5800.000000
20
7300.000000
30
0.0
40
180.000000
1
1. Kich thuoc tinh bang mm.
50
0.000000
41
1.0
7
STANDARD
0
TEXT
8
VAN_BAN
10
-5800.000000
20
6900.000000
30
0.0
40
180.000000
1
2. Tuong bao 220, tuong ngan 110.
50
0.000000
41
1.0
7
STANDARD
0
TEXT
8
VAN_BAN
10
-5800.000000
20
6500.000000
30
0.0
40
180.000000
1
3. Cao do san hoan thien +0.000.
50
0.000000
41
1.0
7
STANDARD
0
TEXT
8
VAN_BAN
10
-5800.000000
20
6100.000000
30
0.0
40
180.000000
1
4. Kiem tra hien truong truoc thi cong.
50
0.000000
41
1.0
7
STANDARD
0
CIRCLE
8
VAN_BAN
10
-4200.000000
20
1600.000000
30
0.0
40
700.000000
0
SOLID
8
VAN_BAN
10
-4200.000000
20
2400.000000
30
0.0
11
-4450.000000
21
900.000000
31
0.0
12
-4200.000000
22
1200.000000
32
0.0
13
-4200.000000
23
1200.000000
33
0.0
0
SOLID
8
VAN_BAN
10
-4200.000000
20
2400.000000
30
0.0
11
-3950.000000
21
900.000000
31
0.0
12
-4200.000000
22
1200.000000
32
0.0
13
-4200.000000
23
1200.000000
33
0.0
0
TEXT
8
VAN_BAN
10
-4255.000000
20
2500.000000
30
0.0
40
200.000000
1
N
50
0.000000
41
1.0
7
STANDARD
0
LINE
8
KHUNG_TEN
10
-6200.000000
20
-7000.000000
30
0.0
11
20400.000000
21
-7000.000000
31
0.0
0
LINE
8
KHUNG_TEN
10
20400.000000
20
-7000.000000
30
0.0
11
20400.000000
21
11600.000000
31
0.0
0
LINE
8
KHUNG_TEN
10
20400.000000
20
11600.000000
30
0.0
11
-6200.000000
21
11600.000000
31
0.0
0
LINE
8
KHUNG_TEN
10
-6200.000000
20
11600.000000
30
0.0
11
-6200.000000
21
-7000.000000
31
0.0
0
LINE
8
KHUNG_TEN
10
-5900.000000
20
-6700.000000
30
0.0
11
20100.000000
21
-6700.000000
31
0.0
0
LINE
8
KHUNG_TEN
10
20100.000000
20
-6700.000000
30
0.0
11
20100.000000
21
11300.000000
31
0.0
0
LINE
8
KHUNG_TEN
10
20100.000000
20
11300.000000
30
0.0
11
-5900.000000
21
11300.000000
31
0.0
0
LINE
8
KHUNG_TEN
10
-5900.000000
20
11300.000000
30
0.0
11
-5900.000000
21
-6700.000000
31
0.0
0
LINE
8
KHUNG_TEN
10
12500.000000
20
-6700.000000
30
0.0
11
20100.000000
21
-6700.000000
31
0.0
0
LINE
8
KHUNG_TEN
10
20100.000000
20
-6700.000000
30
0.0
11
20100.000000
21
-3700.000000
31
0.0
0
LINE
8
KHUNG_TEN
10
20100.000000
20
-3700.000000
30
0.0
11
12500.000000
21
-3700.000000
31
0.0
0
LINE
8
KHUNG_TEN
10
12500.000000
20
-3700.000000
30
0.0
11
12500.000000
21
-6700.000000
31
0.0
0
LINE
8
KHUNG_TEN
10
12500.000000
20
-6100.000000
30
0.0
11
20100.000000
21
-6100.000000
31
0.0
0
LINE
8
KHUNG_TEN
10
12500.000000
20
-5600.000000
30
0.0
11
20100.000000
21
-5600.000000
31
0.0
0
LINE
8
KHUNG_TEN
10
12500.000000
20
-5000.000000
30
0.0
11
20100.000000
21
-5000.000000
31
0.0
0
LINE
8
KHUNG_TEN
10
12500.000000
20
-4400.000000
30
0.0
11
20100.000000
21
-4400.000000
31
0.0
0
LINE
8
KHUNG_TEN
10
15700.000000
20
-6700.000000
30
0.0
11
15700.000000
21
-5000.000000
31
0.0
0
TEXT
8
KHUNG_TEN
10
12700.000000
20
-4150.000000
30
0.0
40
300.000000
1
CONG TY CP XAY DUNG DEMO
50
0.000000
41
1.0
7
STANDARD
0
TEXT
8
KHUNG_TEN
10
12700.000000
20
-4800.000000
30
0.0
40
200.000000
1
DU AN: CHUNG CU SUNRISE TOWER - BLOCK A
50
0.000000
41
1.0
7
STANDARD
0
TEXT
8
KHUNG_TEN
10
12700.000000
20
-5400.000000
30
0.0
40
220.000000
1
MAT BANG CAN HO A-01.02
50
0.000000
41
1.0
7
STANDARD
0
TEXT
8
KHUNG_TEN
10
12700.000000
20
-5900.000000
30
0.0
40
180.000000
1
TY LE: 1/100
50
0.000000
41
1.0
7
STANDARD
0
TEXT
8
KHUNG_TEN
10
12700.000000
20
-6350.000000
30
0.0
40
180.000000
1
NGAY: 04/09/2026
50
0.000000
41
1.0
7
STANDARD
0
TEXT
8
KHUNG_TEN
10
15900.000000
20
-5400.000000
30
0.0
40
180.000000
1
SO HIEU BAN VE:
50
0.000000
41
1.0
7
STANDARD
0
TEXT
8
KHUNG_TEN
10
15900.000000
20
-5900.000000
30
0.0
40
300.000000
1
KT-02-A0102
50
0.000000
41
1.0
7
STANDARD
0
TEXT
8
KHUNG_TEN
10
15900.000000
20
-6350.000000
30
0.0
40
180.000000
1
GIAI DOAN: THIET KE KY THUAT
50
0.000000
41
1.0
7
STANDARD
0
TEXT
8
KHUNG_TEN
10
-5600.000000
20
10600.000000
30
0.0
40
420.000000
1
MAT BANG BO TRI NOI THAT - CAN HO A-01.02
50
0.000000
41
1.0
7
STANDARD
0
TEXT
8
KHUNG_TEN
10
-5600.000000
20
10000.000000
30
0.0
40
220.000000
1
TAI LIEU NOI BO - KHONG PHO BIEN RA NGOAI
50
0.000000
41
1.0
7
STANDARD
0
ENDSEC
0
EOF
